<svg width="7" height="17" viewBox="0 0 7 17" fill="none" xmlns="http://www.w3.org/2000/svg">
<path d="M5.83749 16.6762C5.68809 16.6768 5.54048 16.6375 5.40551 16.5612C5.27053 16.485 5.15161 16.3737 5.05749 16.2355L0.227488 9.08918C0.0804063 8.87607 0 8.60875 0 8.33287C0 8.05699 0.0804063 7.78967 0.227488 7.57655L5.22749 0.430269C5.39723 0.187037 5.64114 0.0340773 5.90557 0.00503992C6.16999 -0.0239975 6.43327 0.0732657 6.63749 0.275432C6.84171 0.477599 6.97013 0.768109 6.99451 1.08305C7.01889 1.398 6.93723 1.71158 6.76749 1.95481L2.29749 8.33882L6.61749 14.7228C6.73977 14.8977 6.81745 15.1106 6.84133 15.3363C6.86521 15.5621 6.83429 15.7913 6.75224 15.9968C6.67018 16.2022 6.54042 16.3754 6.37831 16.4958C6.2162 16.6162 6.02852 16.6788 5.83749 16.6762Z" fill="white"/>
</svg>
