<svg width="171" height="66" viewBox="0 0 171 66" fill="none" xmlns="http://www.w3.org/2000/svg">
<g clip-path="url(#clip0_2_1727)">
<path d="M54.1232 15.4252C53.0142 15.4252 52.5222 16.1729 52.5222 17.2863V27.9043C52.5222 29.0177 53.0142 29.7695 54.1232 29.7695C55.2322 29.7695 55.7363 29.0177 55.7363 27.9043V17.2863C55.7403 16.1688 55.2362 15.4252 54.1232 15.4252Z" fill="#004B8D"/>
<path d="M107.198 15.795H106.178V20.2649H107.364C108.727 20.2649 109.227 19.1474 109.227 17.8796C109.227 16.2907 108.335 15.795 107.198 15.795Z" fill="#004B8D"/>
<path d="M34.5001 16.2338H33.3064V28.9568H34.5001C35.8551 28.9568 36.3309 28.3676 36.3309 26.6649V18.5338C36.3309 16.823 35.8551 16.2338 34.5001 16.2338Z" fill="#004B8D"/>
<path d="M114.332 0H0V15.7543H14.3969V29.8873H0V45.7554H114.578C114.578 45.7554 134.153 45.8245 134.153 21.9472C134.153 0.0446992 114.332 0 114.332 0ZM43.8157 26.2667C43.8157 31.3258 41.6783 33.6786 36.5204 33.6786H25.9345V11.5486L25.9587 11.5161H36.5245C41.6823 11.5161 43.8197 13.8729 43.8197 18.932V26.2667H43.8157ZM54.1233 34.3613C46.8926 34.3613 44.9287 31.6915 44.9287 22.5933C44.9287 13.4991 46.8926 10.8253 54.1233 10.8253C61.3661 10.8253 63.3341 13.4991 63.3341 22.5933C63.3341 31.6915 61.3701 34.3613 54.1233 34.3613ZM77.4406 33.6786H67.6572L62.8058 11.512H70.6777L72.5408 26.6609H72.5932L74.533 11.512H82.4331L77.4406 33.6786ZM97.3623 16.7865H90.5228V20.082H96.7251V24.8038H90.5228V28.396H97.3623V33.6786H83.038V11.512H97.3623V16.7865ZM117.627 33.6786H110.219C109.557 33.6786 109.134 33.0488 109.134 32.0613V27.1851C109.134 25.2915 108.614 24.5478 107.222 24.5478H106.174V33.6786H98.685V11.512H110.271C114.602 11.512 116.707 13.3162 116.707 17.6601C116.707 20.4518 115.211 22.2235 112.767 22.4958V22.5689C114.32 22.7518 116.619 23.8692 116.619 26.5999V31.5981C116.619 32.809 117.147 33.4267 117.647 33.6095L117.627 33.6786Z" fill="#004B8D"/>
<path d="M138.504 41.6473C138.504 43.9391 136.657 45.7596 134.443 45.7596C132.253 45.7596 130.386 43.9432 130.386 41.6473C130.386 39.3554 132.274 37.5593 134.443 37.5593C136.681 37.5553 138.504 39.3757 138.504 41.6473ZM130.87 41.6473C130.87 43.679 132.491 45.2841 134.443 45.2841C136.419 45.2841 138.02 43.6628 138.02 41.6473C138.02 39.7089 136.464 38.0429 134.443 38.0429C132.491 38.0429 130.87 39.6642 130.87 41.6473ZM132.963 39.4164H134.512C134.834 39.4164 135.992 39.4164 135.992 40.5176C135.992 40.6476 135.992 41.3384 135.177 41.5782C135.629 41.6879 135.778 41.8789 135.843 42.4234C135.907 42.9638 135.951 43.3743 136.101 43.8091H135.48C135.395 43.5287 135.351 43.3539 135.262 42.6631C135.197 41.9927 135.024 41.8179 134.318 41.8179H133.564V43.8091H132.963V39.4164ZM133.564 41.2978H134.512C134.81 41.2978 135.371 41.2978 135.371 40.6273C135.371 39.9365 134.834 39.9365 134.512 39.9365H133.564V41.2978Z" fill="#004B8D"/>
<path d="M0.00830078 53.4884H8.5335V55.7477H2.67394V58.5719H7.75115V60.6605H2.67394V65.7074H0.00830078V53.4884Z" fill="#004B8D"/>
<path d="M20.0305 61.0872C20.0305 64.3908 18.0948 66 14.8484 66C11.5859 66 9.68652 64.4071 9.68652 61.0872V53.4884H12.3522V61.0872C12.3522 62.4241 12.6909 63.7407 14.8484 63.7407C16.7519 63.7407 17.3608 62.9036 17.3608 61.0872V53.4884H20.0265V61.0872H20.0305Z" fill="#004B8D"/>
<path d="M21.9785 53.4884H31.0481V55.7477H24.6482V58.3646H30.5239V60.4533H24.6482V63.4481H31.1852V65.7074H21.9785V53.4884Z" fill="#004B8D"/>
<path d="M32.645 53.4884H35.3107V63.4481H41.2226V65.7074H32.645V53.4884Z" fill="#004B8D"/>
<path d="M42.376 53.4884H45.0416V65.7074H42.376V53.4884Z" fill="#004B8D"/>
<path d="M47.0459 53.4884H49.6954L54.7565 61.6845H54.7887V53.4884H57.285V65.7074H54.6194L49.5744 57.5275H49.5422V65.7074H47.0459V53.4884Z" fill="#004B8D"/>
<path d="M68.0523 64.3217C67.1167 65.5367 65.8948 66 64.7253 66C60.9708 66 58.7649 63.1758 58.7649 59.6527C58.7649 56.024 60.9708 53.1998 64.7253 53.1998C67.2054 53.1998 69.5484 54.7399 69.8388 57.5112H67.2901C66.9836 56.1581 65.9835 55.4592 64.7253 55.4592C62.3298 55.4592 61.4305 57.5112 61.4305 59.6527C61.4305 61.6886 62.3298 63.7447 64.7253 63.7447C66.4553 63.7447 67.4595 62.802 67.6127 61.1075H64.9309V59.1041H70.0243V65.7115H68.3265L68.0523 64.3217Z" fill="#004B8D"/>
<path d="M78.0335 61.652C78.0335 63.2774 79.2917 63.9114 80.7153 63.9114C81.6509 63.9114 83.0744 63.6391 83.0744 62.3875C83.0744 61.0709 81.2556 60.8474 79.4732 60.3679C77.6746 59.8884 75.8558 59.1855 75.8558 56.8936C75.8558 54.3945 78.1988 53.1958 80.3886 53.1958C82.9212 53.1958 85.244 54.3092 85.244 57.1334H82.6631C82.5784 55.6624 81.542 55.2845 80.2676 55.2845C79.4167 55.2845 78.4327 55.6421 78.4327 56.6701C78.4327 57.6129 79.0094 57.7307 82.0501 58.519C82.9333 58.7425 85.6513 59.3074 85.6513 62.0787C85.6513 64.3218 83.9011 65.9959 80.6064 65.9959C77.9246 65.9959 75.4082 64.659 75.4445 61.648H78.0335V61.652Z" fill="#004B8D"/>
<path d="M92.3334 53.1998C96.0879 53.1998 98.2938 56.024 98.2938 59.6527C98.2938 63.1799 96.0879 66 92.3334 66C88.579 66 86.373 63.1758 86.373 59.6527C86.373 56.0199 88.579 53.1998 92.3334 53.1998ZM92.3334 63.7406C94.7289 63.7406 95.6282 61.6886 95.6282 59.6487C95.6282 57.5112 94.7289 55.4551 92.3334 55.4551C89.938 55.4551 89.0387 57.5072 89.0387 59.6487C89.0387 61.6886 89.938 63.7406 92.3334 63.7406Z" fill="#004B8D"/>
<path d="M99.7698 53.4884H102.435V63.4481H108.347V65.7074H99.7698V53.4884Z" fill="#004B8D"/>
<path d="M119.792 61.0872C119.792 64.3908 117.857 66 114.614 66C111.352 66 109.452 64.4071 109.452 61.0872V53.4884H112.118V61.0872C112.118 62.4241 112.457 63.7407 114.614 63.7407C116.518 63.7407 117.127 62.9036 117.127 61.0872V53.4884H119.792V61.0872Z" fill="#004B8D"/>
<path d="M124.426 55.7477H120.792V53.4884H130.729V55.7477H127.096V65.7074H124.43V55.7477H124.426Z" fill="#004B8D"/>
<path d="M131.778 53.4884H134.443V65.7074H131.778V53.4884Z" fill="#004B8D"/>
<path d="M141.884 53.1998C145.638 53.1998 147.844 56.024 147.844 59.6527C147.844 63.1799 145.634 66 141.884 66C138.129 66 135.923 63.1758 135.923 59.6527C135.923 56.0199 138.129 53.1998 141.884 53.1998ZM141.884 63.7406C144.279 63.7406 145.178 61.6886 145.178 59.6487C145.178 57.5112 144.279 55.4551 141.884 55.4551C139.488 55.4551 138.589 57.5072 138.589 59.6487C138.589 61.6886 139.488 63.7406 141.884 63.7406Z" fill="#004B8D"/>
<path d="M149.32 53.4884H151.97L157.031 61.6845H157.063V53.4884H159.559V65.7074H156.894L151.849 57.5275H151.816V65.7074H149.32V53.4884Z" fill="#004B8D"/>
<path d="M163.382 61.652C163.382 63.2774 164.64 63.9114 166.064 63.9114C166.999 63.9114 168.423 63.6391 168.423 62.3875C168.423 61.0709 166.604 60.8474 164.822 60.3679C163.023 59.8884 161.204 59.1855 161.204 56.8936C161.204 54.3945 163.547 53.1958 165.737 53.1958C168.27 53.1958 170.593 54.3092 170.593 57.1334H168.012C167.927 55.6624 166.891 55.2845 165.616 55.2845C164.765 55.2845 163.781 55.6421 163.781 56.6701C163.781 57.6129 164.358 57.7307 167.399 58.519C168.282 58.7425 171 59.3074 171 62.0787C171 64.3218 169.25 65.9959 165.955 65.9959C163.273 65.9959 160.757 64.659 160.793 61.648H163.382V61.652Z" fill="#004B8D"/>
</g>
<defs>
<clipPath id="clip0_2_1727">
<rect width="171" height="66" fill="white"/>
</clipPath>
</defs>
</svg>
