<svg width="17" height="17" viewBox="0 0 17 17" fill="none" xmlns="http://www.w3.org/2000/svg">
<path d="M3.33437 11.9567C5.17812 11.2067 6.94375 10.8317 8.63125 10.8317C10.3187 10.8317 12.0687 11.2067 13.8812 11.9567C15.725 12.6754 16.6469 13.6285 16.6469 14.816V16.8317H0.615623V14.816C0.615623 13.6285 1.52187 12.6754 3.33437 11.9567ZM11.4437 7.64417C10.6625 8.42542 9.725 8.81604 8.63125 8.81604C7.5375 8.81604 6.6 8.42542 5.81875 7.64417C5.0375 6.86292 4.64687 5.92542 4.64687 4.83167C4.64687 3.73792 5.0375 2.80042 5.81875 2.01917C6.6 1.20667 7.5375 0.800415 8.63125 0.800415C9.725 0.800415 10.6625 1.20667 11.4437 2.01917C12.225 2.80042 12.6156 3.73792 12.6156 4.83167C12.6156 5.92542 12.225 6.86292 11.4437 7.64417Z" fill="#1F2041" fill-opacity="0.25"/>
</svg>
