<svg width="13" height="17" viewBox="0 0 13 17" fill="none" xmlns="http://www.w3.org/2000/svg">
<path d="M8.64825 11.9185L9.71502 10.5401C9.85871 10.3568 10.0405 10.2313 10.2383 10.1789C10.4361 10.1264 10.6415 10.1493 10.8294 10.2448L12.1296 10.9155C12.3195 11.0151 12.4823 11.1851 12.5976 11.4041C12.7129 11.6231 12.7754 11.8813 12.7772 12.1461V15.2227C12.7761 15.4029 12.7468 15.5809 12.6911 15.746C12.6353 15.9111 12.5543 16.06 12.4528 16.1836C12.3514 16.3072 12.2316 16.403 12.1008 16.4652C11.9699 16.5274 11.8307 16.5548 11.6914 16.5456C2.58095 15.8134 0.742669 5.84527 0.395014 2.0303C0.378876 1.84296 0.393621 1.65333 0.43828 1.47388C0.482938 1.29443 0.556498 1.12923 0.654121 0.989147C0.751743 0.849066 0.871214 0.737278 1.00468 0.661138C1.13814 0.584998 1.28256 0.546232 1.42845 0.547388H3.72869C3.93396 0.548173 4.13434 0.628283 4.30408 0.777412C4.47382 0.926542 4.60515 1.13787 4.68117 1.38422L5.20027 3.06404C5.27659 3.3059 5.29606 3.57145 5.25625 3.82753C5.21644 4.08361 5.11912 4.31885 4.97644 4.50388L3.90966 5.88219C3.90966 5.88219 4.52401 11.2539 8.64825 11.9185Z" fill="#C7C7CF"/>
</svg>
