<svg width="54" height="53" viewBox="0 0 54 53" fill="none" xmlns="http://www.w3.org/2000/svg">
<circle cx="27" cy="26.5" r="26.5" fill="#509CE4"/>
<path fill-rule="evenodd" clip-rule="evenodd" d="M32.592 11.0001C32.8719 11.2094 33.2053 11.3763 33.414 11.6415C33.5741 11.8448 33.6026 12.1687 33.6404 12.4457C33.664 12.6184 33.697 12.7071 33.8744 12.7732C34.3712 12.9583 34.8602 13.1664 35.3444 13.383C35.4956 13.4507 35.5846 13.4559 35.7141 13.3307C36.3909 12.6777 37.1528 12.691 37.8206 13.3535C38.2786 13.8077 38.7372 14.2614 39.189 14.7215C39.7908 15.3342 39.8014 16.126 39.2049 16.7425C39.0614 16.8909 39.0371 16.9919 39.1297 17.1865C39.3487 17.6467 39.5345 18.1233 39.7173 18.5996C39.778 18.7577 39.8297 18.847 40.0291 18.8516C40.9733 18.8739 41.4954 19.4206 41.4978 20.3629C41.4995 20.9978 41.5015 21.6324 41.4973 22.2672C41.4916 23.1415 40.9339 23.7136 40.0636 23.7227C39.87 23.7247 39.7853 23.7794 39.7161 23.9668C39.5324 24.4642 39.3227 24.9525 39.1063 25.4368C39.042 25.5804 39.0469 25.663 39.1585 25.7814C39.8209 26.4857 39.8067 27.2318 39.1294 27.9127C38.6817 28.3627 38.235 28.8138 37.7821 29.2584C37.156 29.8731 36.3724 29.88 35.7393 29.2664C35.5964 29.1279 35.4956 29.1222 35.3186 29.2047C34.8562 29.4202 34.3834 29.6153 33.9053 29.7932C33.729 29.8587 33.6467 29.9212 33.6439 30.1269C33.6312 31.0231 33.0696 31.5702 32.1735 31.5773C31.5388 31.5823 30.904 31.581 30.2692 31.5776C29.3499 31.5725 28.7906 31.0322 28.7755 30.1192C28.7724 29.9335 28.7099 29.8606 28.5396 29.7967C28.0527 29.614 27.5723 29.4121 27.0973 29.2001C26.9392 29.1294 26.8418 29.1116 26.6987 29.2482C26.0151 29.9008 25.2624 29.881 24.5903 29.2118C24.1406 28.7639 23.6904 28.3163 23.244 27.8651C22.6277 27.242 22.6129 26.4441 23.2235 25.8235C23.3762 25.6683 23.3708 25.5634 23.2839 25.3775C23.0682 24.9156 22.88 24.4402 22.6998 23.9628C22.6379 23.7987 22.5729 23.725 22.3816 23.7222C21.4644 23.709 20.924 23.1505 20.9207 22.2334C20.9185 21.5987 20.9182 20.9639 20.9208 20.3292C20.9245 19.4284 21.4646 18.8666 22.3607 18.8507C22.5581 18.8473 22.6367 18.7835 22.7042 18.5988C22.8791 18.12 23.0763 17.6481 23.2885 17.1845C23.3667 17.0136 23.3799 16.9108 23.2364 16.7628C22.6108 16.1176 22.6231 15.3353 23.2531 14.6991C23.7069 14.2408 24.163 13.7848 24.6212 13.3309C25.2592 12.6988 26.0445 12.6859 26.6839 13.3106C26.8277 13.451 26.9264 13.4502 27.1026 13.3688C27.5747 13.1509 28.0651 12.973 28.5416 12.764C28.6331 12.7239 28.762 12.6119 28.7592 12.5377C28.7282 11.7495 29.1393 11.2821 29.8267 11C30.7485 11.0001 31.6702 11.0001 32.592 11.0001ZM33.6501 28.6488C34.2393 28.3504 34.7583 28.0942 35.2709 27.8256C35.6194 27.643 35.8488 27.6607 36.1328 27.9298C36.2888 28.0777 36.4257 28.2491 36.5959 28.3771C36.6655 28.4293 36.8454 28.442 36.8985 28.3917C37.3817 27.934 37.8529 27.4635 38.3117 26.9814C38.3639 26.9264 38.36 26.7459 38.3093 26.679C38.1743 26.5012 37.9958 26.357 37.841 26.1933C37.593 25.9308 37.5501 25.6875 37.7332 25.3861C38.1833 24.6456 38.5086 23.8566 38.7196 23.0167C38.81 22.6568 39.0123 22.5109 39.3833 22.5004C39.5982 22.4943 39.8135 22.4946 40.0284 22.4998C40.1974 22.5039 40.2705 22.4288 40.2698 22.2613C40.2675 21.6161 40.266 20.9709 40.2709 20.3257C40.2724 20.1391 40.1887 20.0692 40.0102 20.0734C39.7953 20.0787 39.5797 20.0814 39.3651 20.071C39.0044 20.0535 38.8103 19.9113 38.7233 19.5662C38.5095 18.7163 38.1818 17.9171 37.7229 17.1696C37.5585 16.9016 37.5991 16.6382 37.812 16.4089C37.9652 16.2439 38.1233 16.0828 38.2886 15.9299C38.4365 15.7933 38.4232 15.684 38.2831 15.5472C37.8289 15.1037 37.3805 14.6539 36.9356 14.201C36.8081 14.0713 36.7033 14.0604 36.5762 14.1967C36.4298 14.354 36.2767 14.5055 36.1201 14.6528C35.8475 14.9095 35.6046 14.9464 35.2866 14.7512C34.5566 14.3031 33.7753 13.9856 32.9458 13.7768C32.5844 13.6858 32.4364 13.4879 32.4232 13.117C32.4155 12.9023 32.4176 12.6868 32.4217 12.4719C32.4249 12.3081 32.3624 12.2265 32.188 12.2277C31.5326 12.2319 30.8769 12.2223 30.222 12.2392C30.1462 12.2412 30.0217 12.3701 30.0104 12.4526C29.9801 12.6739 30.0057 12.9021 29.9969 13.127C29.9831 13.4827 29.8352 13.6855 29.4941 13.7709C28.6542 13.9815 27.8648 14.3055 27.1239 14.7551C26.8054 14.9483 26.5666 14.9068 26.2923 14.646C26.1513 14.512 26.0089 14.3782 25.8807 14.2325C25.7331 14.0646 25.6131 14.0586 25.454 14.2279C25.1456 14.5562 24.8198 14.868 24.5011 15.1867C23.9493 15.7385 23.9493 15.7385 24.4873 16.2823C24.5162 16.3114 24.546 16.3396 24.5738 16.3696C24.8286 16.6455 24.8694 16.8868 24.6764 17.2045C24.2316 17.9361 23.9092 18.7152 23.704 19.5463C23.6142 19.9095 23.4197 20.0542 23.0451 20.0713C22.8407 20.0806 22.6352 20.082 22.4308 20.0724C22.2167 20.0624 22.1433 20.1548 22.1463 20.3646C22.155 20.9789 22.1568 21.5936 22.1457 22.2078C22.1414 22.4443 22.2426 22.5142 22.4597 22.5013C22.6536 22.4897 22.8489 22.4942 23.0432 22.5003C23.4004 22.5116 23.6081 22.6548 23.6932 22.9938C23.9066 23.8437 24.2305 24.6443 24.6911 25.391C24.8629 25.6696 24.8216 25.9397 24.5958 26.1766C24.4544 26.3248 24.3157 26.477 24.1607 26.6102C23.9714 26.773 23.9978 26.8997 24.1696 27.0604C24.4762 27.3469 24.7655 27.6519 25.063 27.9483C25.6573 28.5403 25.6575 28.5401 26.2482 27.9673C26.2556 27.9602 26.2626 27.9525 26.27 27.9455C26.569 27.6604 26.796 27.6308 27.154 27.8316C27.2701 27.8966 27.3807 27.9727 27.5006 28.029C27.9085 28.2209 28.3193 28.4063 28.77 28.6128C28.77 27.7701 28.76 27.0124 28.7758 26.2552C28.7809 26.0182 28.7077 25.9002 28.4938 25.7871C25.4112 24.156 24.6499 20.0684 26.9385 17.4364C27.4316 16.8693 27.985 16.3603 28.7289 16.1376C29.3169 15.9616 29.8264 16.2578 29.98 16.851C30.0282 17.0369 30.0479 17.2352 30.0477 17.4279C30.0459 18.4722 30.0323 19.5165 30.0273 20.5609C30.0267 20.6929 30.0411 20.8272 30.0677 20.9567C30.1776 21.4905 30.6634 21.9348 31.1673 21.9716C31.6107 22.004 32.1479 21.5988 32.3133 21.0966C32.3546 20.9716 32.387 20.8369 32.3872 20.7065C32.3887 19.6621 32.3784 18.6177 32.3795 17.5733C32.3797 17.3395 32.3814 17.0989 32.4334 16.8732C32.5739 16.2634 33.0941 15.9667 33.697 16.1399C33.872 16.1902 34.0461 16.2621 34.2028 16.3543C36.1763 17.515 37.2178 19.9803 36.6715 22.2036C36.2732 23.8242 35.3343 25.0295 33.8675 25.8289C33.772 25.881 33.6615 26.0143 33.6596 26.1118C33.6429 26.9203 33.6501 27.7291 33.6501 28.6488ZM28.7964 17.4454C28.7272 17.4889 28.6853 17.5119 28.6471 17.5398C27.3852 18.4606 26.7418 19.7057 26.8527 21.262C26.9737 22.9571 27.864 24.1717 29.4173 24.8636C29.8355 25.05 30.0094 25.3007 30.0046 25.7507C29.9896 27.1632 30.006 28.576 29.9933 29.9886C29.9908 30.2752 30.0839 30.3637 30.3644 30.3546C30.9165 30.3365 31.4703 30.3342 32.0223 30.3552C32.3267 30.3668 32.4314 30.2779 32.4278 29.9599C32.4119 28.5577 32.4305 27.1551 32.4154 25.7528C32.4106 25.3034 32.5779 25.0467 33.0022 24.8677C34.9032 24.0662 35.9339 22.047 35.4724 20.0451C35.2184 18.9441 34.6007 18.0858 33.6401 17.4485C33.6236 17.507 33.6093 17.534 33.6093 17.561C33.6126 18.5436 33.6258 19.5263 33.6167 20.5087C33.614 20.8024 33.5835 21.1049 33.5063 21.3872C33.2196 22.4362 32.1161 23.2756 31.1481 23.2081C29.9735 23.1262 28.9813 22.2031 28.8387 21.0287C28.7908 20.6345 28.8009 20.2324 28.7981 19.8338C28.7924 19.0501 28.7964 18.2662 28.7964 17.4454Z" fill="white"/>
<path fill-rule="evenodd" clip-rule="evenodd" d="M28.8438 42.4627C27.1463 42.0125 25.4486 41.5635 23.7517 41.1114C22.4674 40.7693 21.1917 40.39 19.8969 40.0948C19.3687 39.9743 18.8 40.0262 18.2495 40.0164C18.1912 40.0153 18.1123 40.1168 18.0743 40.1875C17.7442 40.8017 17.2436 41.1259 16.5377 41.1228C15.7594 41.1192 14.981 41.1255 14.2026 41.1211C13.1919 41.1153 12.5055 40.4331 12.5034 39.4219C12.4988 37.3224 12.4989 35.2228 12.5034 33.1233C12.5055 32.1181 13.1998 31.4221 14.2017 31.4142C14.98 31.4081 15.7585 31.4078 16.5368 31.4145C17.2198 31.4204 17.7389 31.7181 18.0509 32.3329C18.127 32.4829 18.2111 32.5332 18.377 32.5395C18.9588 32.5619 19.509 32.4696 20.0526 32.2458C20.9087 31.893 21.8048 31.6763 22.7356 31.6541C24.2203 31.6186 25.4839 32.1949 26.6236 33.0966C26.7681 33.2109 26.929 33.3142 27.0441 33.454C27.3663 33.845 27.7645 33.9492 28.2621 33.927C29.1207 33.8887 29.9825 33.9325 30.8424 33.9115C31.5731 33.8937 32.2195 34.0708 32.7567 34.6074C33.0995 34.4333 33.436 34.2637 33.7712 34.0917C35.0452 33.4382 36.3192 32.7846 37.5925 32.1297C38.288 31.7719 39.002 31.7065 39.7214 32.0335C41.1948 32.7032 41.4092 34.7152 40.0995 35.7542C39.3706 36.3324 38.5932 36.85 37.8298 37.3833C37.5381 37.5871 37.1769 37.5185 36.9812 37.2553C36.7774 36.9809 36.8288 36.6049 37.1273 36.387C37.8051 35.892 38.507 35.4287 39.1682 34.9127C39.3958 34.7351 39.6132 34.4638 39.6934 34.1932C39.8961 33.5101 39.2711 32.9253 38.5478 33.0808C38.3903 33.1147 38.2357 33.1814 38.0913 33.2552C36.5889 34.0236 35.09 34.7989 33.5862 35.5644C33.4202 35.649 33.3552 35.7231 33.3761 35.9313C33.5136 37.2987 32.5168 38.4382 31.1404 38.4562C29.3587 38.4794 27.5765 38.4653 25.7945 38.4618C25.3747 38.461 25.0982 38.2068 25.0962 37.847C25.0942 37.47 25.3669 37.2358 25.8195 37.2354C27.5503 37.2339 29.281 37.2366 31.0119 37.2337C31.6201 37.2327 32.0629 36.8919 32.1537 36.3693C32.2654 35.7254 31.7835 35.155 31.1004 35.1489C30.0252 35.1393 28.9496 35.134 27.8745 35.1504C27.3304 35.1586 26.8846 34.9944 26.4903 34.6131C25.8313 33.9758 25.1 33.4362 24.2238 33.1239C23.0838 32.7178 21.9583 32.8642 20.858 33.2611C20.0448 33.5544 19.242 33.8496 18.3569 33.7684C18.3197 33.765 18.2801 33.7878 18.2347 33.8005C18.2347 35.452 18.2347 37.0968 18.2347 38.7349C18.266 38.7515 18.2842 38.77 18.3003 38.7684C19.6719 38.6392 20.9457 39.0853 22.2362 39.4349C24.269 39.9857 26.3046 40.5259 28.3344 41.0877C29.2911 41.3525 30.1807 41.2375 31.0084 40.6993C31.5487 40.3481 32.0709 39.9693 32.603 39.6058C32.8256 39.4537 33.0627 39.4324 33.2956 39.5755C33.517 39.7115 33.6214 39.9221 33.572 40.1771C33.5482 40.3002 33.4912 40.4509 33.398 40.5211C32.4426 41.2408 31.5056 41.9964 30.3233 42.3311C30.1586 42.3777 29.9924 42.419 29.8269 42.4627C29.4992 42.4627 29.1715 42.4627 28.8438 42.4627ZM16.9909 36.2784C16.9909 35.2353 16.9928 34.1922 16.9898 33.1491C16.9887 32.7902 16.8475 32.6457 16.4892 32.6435C15.7325 32.6385 14.9757 32.638 14.219 32.6439C13.8798 32.6466 13.7329 32.7947 13.7324 33.1356C13.7294 35.2218 13.7296 37.308 13.7321 39.3943C13.7326 39.7536 13.8745 39.8903 14.2371 39.8919C14.9733 39.8951 15.7097 39.8942 16.4459 39.8925C16.8759 39.8913 16.9898 39.7776 16.9905 39.3464C16.9922 38.3237 16.991 37.3011 16.9909 36.2784Z" fill="white"/>
<path fill-rule="evenodd" clip-rule="evenodd" d="M35.2304 39.0969C34.8916 39.0997 34.6267 38.8469 34.617 38.5114C34.607 38.1688 34.8815 37.8815 35.2215 37.8787C35.5571 37.8761 35.848 38.1684 35.8413 38.5019C35.8348 38.8312 35.5647 39.0942 35.2304 39.0969Z" fill="white"/>
</svg>
