<svg width="7" height="17" viewBox="0 0 7 17" fill="none" xmlns="http://www.w3.org/2000/svg">
<path d="M1.1615 8.26238e-05C1.3109 -0.000522021 1.45851 0.0387503 1.59349 0.11501C1.72847 0.191271 1.84739 0.302586 1.94151 0.440772L6.77153 7.58707C6.91862 7.80019 6.99902 8.06751 6.99902 8.34339C6.99902 8.61926 6.91862 8.88658 6.77153 9.0997L1.77151 16.246C1.60177 16.4892 1.35785 16.6422 1.09343 16.6712C0.829 16.7003 0.565717 16.603 0.361499 16.4008C0.157281 16.1987 0.0288567 15.9082 0.00447694 15.5932C-0.0199033 15.2783 0.0617589 14.9647 0.231498 14.7215L4.70152 8.33743L0.381499 1.9534C0.259215 1.77858 0.181537 1.56569 0.157657 1.33993C0.133778 1.11416 0.164695 0.884977 0.246751 0.679488C0.328808 0.473998 0.458568 0.300807 0.62068 0.180403C0.78279 0.0600001 0.970467 -0.00257429 1.1615 8.26238e-05Z" fill="white"/>
</svg>
