<svg width="14" height="13" viewBox="0 0 14 13" fill="none" xmlns="http://www.w3.org/2000/svg">
<path d="M8.40994 6.64691L12.7099 2.35691C12.8982 2.16861 13.004 1.91322 13.004 1.64691C13.004 1.38061 12.8982 1.12522 12.7099 0.936914C12.5216 0.74861 12.2662 0.642822 11.9999 0.642822C11.7336 0.642822 11.4782 0.74861 11.2899 0.936914L6.99994 5.23691L2.70994 0.936914C2.52164 0.74861 2.26624 0.642822 1.99994 0.642822C1.73364 0.642822 1.47824 0.74861 1.28994 0.936914C1.10164 1.12522 0.995847 1.38061 0.995847 1.64691C0.995847 1.91322 1.10164 2.16861 1.28994 2.35691L5.58994 6.64691L1.28994 10.9369C1.19621 11.0299 1.12182 11.1405 1.07105 11.2623C1.02028 11.3842 0.994141 11.5149 0.994141 11.6469C0.994141 11.7789 1.02028 11.9096 1.07105 12.0315C1.12182 12.1533 1.19621 12.2639 1.28994 12.3569C1.3829 12.4506 1.4935 12.525 1.61536 12.5758C1.73722 12.6266 1.86793 12.6527 1.99994 12.6527C2.13195 12.6527 2.26266 12.6266 2.38452 12.5758C2.50638 12.525 2.61698 12.4506 2.70994 12.3569L6.99994 8.05691L11.2899 12.3569C11.3829 12.4506 11.4935 12.525 11.6154 12.5758C11.7372 12.6266 11.8679 12.6527 11.9999 12.6527C12.132 12.6527 12.2627 12.6266 12.3845 12.5758C12.5064 12.525 12.617 12.4506 12.7099 12.3569C12.8037 12.2639 12.8781 12.1533 12.9288 12.0315C12.9796 11.9096 13.0057 11.7789 13.0057 11.6469C13.0057 11.5149 12.9796 11.3842 12.9288 11.2623C12.8781 11.1405 12.8037 11.0299 12.7099 10.9369L8.40994 6.64691Z" fill="#373F41"/>
</svg>
