<svg width="54" height="53" viewBox="0 0 54 53" fill="none" xmlns="http://www.w3.org/2000/svg">
<circle cx="27" cy="26.5" r="26.5" fill="#509CE4"/>
<path fill-rule="evenodd" clip-rule="evenodd" d="M27.5334 39C26.6831 38.5646 25.8328 38.1292 24.9707 37.6878C23.6117 38.9993 21.7484 38.7018 20.843 36.9954C18.9666 37.3054 18.137 36.8543 17.4792 35.1496C16.0767 35.196 15.1443 34.5585 14.7349 33.1442C13.4861 33.2085 12.5326 32.723 12.0878 31.4876C11.6436 30.2539 12.3187 29.3263 13.1303 28.3142C12.8519 28.3142 12.6697 28.2609 12.5438 28.3229C11.5356 28.8176 10.5684 28.7404 9.62106 28.1674C9.18319 27.9027 8.73605 27.6521 8.30397 27.3782C7.5001 26.8688 7.26676 25.992 7.75117 25.1649C9.76857 21.7208 11.7955 18.2825 13.8298 14.8484C14.3269 14.009 15.215 13.7937 16.0674 14.2756C16.5546 14.551 17.036 14.8375 17.5106 15.1342C18.442 15.7164 18.9122 16.5675 18.8862 17.6675C18.8789 17.9705 18.9722 18.1286 19.2298 18.2664C19.8597 18.6031 20.5031 18.6734 21.1727 18.4317C21.6382 18.2635 22.101 18.0861 22.5571 17.8932C23.7466 17.3905 24.9027 17.4652 26.0049 18.1202C26.355 18.3283 26.6618 18.3416 27.0367 18.227C27.6316 18.045 28.2502 17.9415 28.8449 17.759C29.7471 17.4823 30.6071 17.5743 31.462 17.9392C31.9313 18.1399 32.4029 18.3589 32.8956 18.4739C33.3107 18.5708 33.7577 18.5298 34.2476 18.5524C33.9823 17.3328 34.109 16.2882 34.9871 15.5603C35.68 14.9859 36.489 14.527 37.3016 14.1312C38.0152 13.7836 38.7718 14.1524 39.2334 14.9335C40.8402 17.652 42.442 20.3735 44.0458 23.0938C44.4366 23.7566 44.8326 24.4163 45.2165 25.083C45.7475 26.0056 45.5241 26.8782 44.6179 27.4326C44.1541 27.7164 43.6879 27.9972 43.2148 28.265C42.6093 28.608 41.9426 28.7916 41.2781 28.5772C40.6463 28.3733 40.255 28.7004 39.7971 29.0081C40.4572 30.0179 40.5621 31.0405 39.8317 32.022C39.1417 32.9493 38.1872 33.1747 37.0654 32.8717C36.6572 34.4033 35.6884 35.1555 34.0384 34.9781C33.8877 35.8089 33.509 36.5061 32.7255 36.9106C31.9602 37.3055 31.1887 37.2721 30.3712 36.8749C30.1607 38.0201 29.4461 38.6743 28.3968 39C28.1091 39 27.8211 39 27.5334 39ZM25.8636 36.4465C26.0165 36.543 26.1485 36.6303 26.2842 36.7112C26.6965 36.9567 27.0969 37.2275 27.5266 37.4372C28.2027 37.7674 29.0041 37.2536 28.9006 36.5262C28.8576 36.2229 28.6103 35.8908 28.3619 35.6887C27.9687 35.3688 27.4879 35.16 27.0599 34.8797C26.7013 34.645 26.6101 34.255 26.7956 33.916C26.988 33.5647 27.3932 33.4506 27.7912 33.6432C27.9203 33.7057 28.04 33.7879 28.1637 33.8614C29.14 34.4417 30.1099 35.033 31.0951 35.5977C31.5958 35.8847 32.1603 35.7229 32.4346 35.2617C32.7079 34.8016 32.5684 34.2441 32.093 33.9162C31.9748 33.8345 31.8467 33.7673 31.723 33.6935C30.6787 33.0715 29.6338 32.45 28.5898 31.8271C28.2624 31.6317 28.0791 31.3187 28.2357 30.9785C28.3385 30.7546 28.6111 30.5496 28.8514 30.4706C29.018 30.4158 29.2779 30.5578 29.4641 30.6672C30.8851 31.5007 32.2982 32.3479 33.7137 33.1908C33.8237 33.2563 33.9314 33.3259 34.0438 33.3867C34.586 33.6805 35.1464 33.563 35.4347 33.0973C35.7398 32.6047 35.594 32.0303 35.0407 31.6967C33.5613 30.8047 32.072 29.9291 30.5875 29.0456C30.4502 28.9638 30.3044 28.8889 30.1866 28.7837C29.9002 28.5283 29.8334 28.2118 30.0263 27.8744C30.2209 27.5338 30.5343 27.4467 30.8935 27.5614C31.0427 27.609 31.1762 27.7089 31.3135 27.7905C33.2387 28.9343 35.1631 30.0797 37.0888 31.2225C37.2531 31.3202 37.4195 31.4223 37.5977 31.4868C38.0402 31.6467 38.5183 31.4567 38.7507 31.0494C38.9715 30.6623 38.9033 30.1675 38.5649 29.8613C38.4244 29.734 38.254 29.6372 38.0898 29.5393C36.0702 28.3348 34.0495 27.1327 32.0287 25.9303C30.9893 25.3118 29.9492 24.6945 28.8883 24.0644C28.7983 24.2435 28.7341 24.388 28.656 24.5248C28.0518 25.5806 27.1531 26.1648 25.9325 26.2097C25.0731 26.2413 24.3066 25.6804 24.3277 24.8342C24.3744 22.9633 23.8117 20.9985 25.062 19.2832C24.5111 18.9798 23.9664 18.9431 23.4123 19.1384C22.8552 19.3346 22.3053 19.5519 21.7535 19.7634C20.9501 20.0712 20.1322 20.1236 19.3113 19.8647C18.9648 19.7553 18.6382 19.5827 18.2674 19.4239C16.7644 21.9733 15.2615 24.5223 13.7587 27.0713C13.7785 27.117 13.7984 27.1626 13.8183 27.2083C14.0122 27.1826 14.2201 27.1936 14.398 27.1255C15.4545 26.7193 16.5328 26.9945 17.2495 27.873C17.3163 27.9548 17.3865 28.0337 17.4545 28.1132C19.0059 26.8236 21.0622 27.4752 21.6075 29.4472C22.4839 29.377 23.2448 29.6347 23.8124 30.3421C24.3758 31.0443 24.4618 31.8486 24.2344 32.6917C25.9256 33.1747 26.6812 34.7576 25.8636 36.4465ZM37.8451 15.4278C37.3278 15.7331 36.8732 15.9969 36.4231 16.268C35.5161 16.8146 35.328 17.5477 35.8583 18.4622C36.0833 18.8506 36.3195 19.2326 36.5403 19.6234C36.7963 20.0768 36.7217 20.5 36.3596 20.7207C35.9942 20.9436 35.5818 20.8101 35.3081 20.3789C35.2564 20.2978 35.1987 20.2183 35.1621 20.1303C35.0382 19.8315 34.8807 19.7483 34.5363 19.8649C33.8072 20.1123 33.0548 20.0924 32.3241 19.8298C31.7833 19.6354 31.2599 19.3862 30.7107 19.2226C30.3534 19.116 29.9466 19.0257 29.592 19.0916C28.7302 19.2517 27.8802 19.4864 27.0365 19.7299C26.2162 19.9668 25.7546 20.6242 25.7385 21.546C25.7217 22.5098 25.7334 23.4739 25.7365 24.4379C25.7368 24.5298 25.7638 24.6216 25.7956 24.8208C26.1363 24.7107 26.4703 24.6586 26.7458 24.5024C27.3606 24.154 27.5586 23.5595 27.6081 22.8799C27.6536 22.2561 28.1501 21.9896 28.701 22.2689C28.943 22.3916 29.17 22.5441 29.4037 22.6831C32.3048 24.4081 35.2046 26.1353 38.111 27.8517C38.2662 27.9433 38.5065 28.0241 38.6528 27.9679C38.941 27.8569 39.1909 27.6458 39.4799 27.4615C39.1313 26.8678 38.7998 26.3027 38.4675 25.7381C38.0204 24.9781 37.571 24.2196 37.1262 23.4582C36.9479 23.1528 36.9051 22.8008 37.1801 22.5764C37.3722 22.4194 37.7047 22.3356 37.9485 22.3763C38.1354 22.4074 38.3215 22.6596 38.44 22.8551C39.1533 24.0349 39.8425 25.2291 40.5488 26.4133C40.9425 27.0736 41.5743 27.3861 42.2055 27.1168C42.8572 26.8389 43.4541 26.4317 44.1145 26.0589C42.0081 22.4872 39.9425 18.9843 37.8451 15.4278ZM15.1679 15.4224C13.0632 18.9914 10.9981 22.4938 8.90395 26.045C9.3543 26.3153 9.76096 26.5617 10.1698 26.8047C11.2873 27.4688 11.9346 27.3071 12.589 26.1995C13.5596 24.5572 14.5289 22.9143 15.498 21.2714C16.0682 20.3049 16.6449 19.3421 17.204 18.3693C17.6145 17.655 17.5083 16.9077 16.8986 16.4784C16.3657 16.103 15.7855 15.7952 15.1679 15.4224ZM20.1547 29.9646C20.1072 29.4309 19.9082 29.1081 19.4861 28.9552C19.0139 28.7843 18.6324 28.9495 18.3522 29.3331C17.6916 30.2372 17.0403 31.1485 16.3993 32.0668C16.0324 32.5921 16.1215 33.1892 16.5852 33.5091C17.0611 33.8375 17.6054 33.7245 17.9973 33.1874C18.6384 32.3086 19.2704 31.4229 19.8915 30.5298C20.0234 30.3399 20.091 30.1048 20.1547 29.9646ZM21.8997 30.8186C21.6621 30.958 21.3527 31.0426 21.1988 31.2458C20.4655 32.214 19.7588 33.2035 19.076 34.2083C18.7831 34.6391 18.9272 35.196 19.328 35.4889C19.7292 35.7819 20.3147 35.7524 20.6227 35.3425C21.3617 34.3585 22.0929 33.3655 22.7639 32.3345C23.1731 31.7059 22.679 30.9033 21.8997 30.8186ZM14.3954 31.7558C14.6251 31.6317 14.917 31.5602 15.0722 31.3737C15.4791 30.8843 15.8517 30.3609 16.1891 29.8202C16.452 29.3992 16.3033 28.8691 15.9142 28.5819C15.509 28.2832 14.9466 28.3166 14.6218 28.7196C14.2316 29.2032 13.8572 29.7069 13.5383 30.2394C13.1523 30.8844 13.6198 31.6719 14.3954 31.7558ZM24.7614 34.9176C24.6538 34.7833 24.4832 34.4503 24.2128 34.2633C23.875 34.0297 23.4392 34.0775 23.1613 34.3938C22.8056 34.7982 22.4858 35.2466 22.2239 35.7174C22.0322 36.0618 22.1364 36.4424 22.419 36.733C22.6983 37.0201 23.039 37.1121 23.4261 36.9821C23.8689 36.8332 24.7474 35.6161 24.7614 34.9176Z" fill="white"/>
</svg>
