<svg width="65" height="29" viewBox="0 0 65 29" fill="none" xmlns="http://www.w3.org/2000/svg">
<path d="M48.5535 17.4072C47.7138 17.4072 46.9962 18.0093 46.849 18.8356L46.0027 23.6194C45.8538 24.4691 45.526 25.1381 45.0292 25.6065C44.5341 26.0748 43.9286 26.3023 43.1809 26.3023C42.3948 26.3023 41.8345 26.1083 41.5133 25.7252C41.1621 25.3054 41.065 24.6263 41.2273 23.7064L42.3429 17.4072H41.321C40.4813 17.4072 39.7637 18.0093 39.6182 18.8356L38.7719 23.6194C38.4892 25.2201 38.7317 26.4645 39.4894 27.3193C40.2438 28.169 41.3711 28.6005 42.8364 28.6005C44.3903 28.6005 45.6564 28.1824 46.6032 27.3561C47.5465 26.5331 48.1704 25.3054 48.4598 23.7064L49.5754 17.4072H48.5535ZM52.8956 17.3921C52.056 17.3921 51.3367 17.996 51.1912 18.8222L49.5119 28.3764H50.3699C51.3033 28.3764 52.1011 27.7056 52.2634 26.7874L53.9143 17.3921H52.8956ZM57.9905 19.6619H60.7437C61.2371 19.6619 61.575 19.789 61.7824 20.0516C62.0015 20.331 62.1052 20.6688 62.0952 21.0786C62.0768 21.5988 61.8894 22.0371 61.5215 22.4184C61.1585 22.7948 60.6885 22.9788 60.0863 22.9788H57.4201L57.9905 19.6619ZM58.601 17.3854C58.2213 17.3871 57.7864 17.3888 57.3783 17.3905C56.5253 17.3921 55.7993 18.006 55.6505 18.8457L53.9762 28.3781H54.7456C55.7391 28.3781 56.5872 27.6638 56.7594 26.6853L57.002 25.292H59.7551C61.2555 25.292 62.4498 24.8571 63.3028 23.9974C64.1575 23.1393 64.5891 22.0638 64.5891 20.8027C64.5891 19.8543 64.288 19.0397 63.6925 18.3807C63.0904 17.715 62.2106 17.3771 61.0732 17.3771C60.5346 17.3771 59.71 17.3804 58.601 17.3854ZM29.3381 25.4275C28.8932 24.8839 28.6674 24.2148 28.6674 23.4387C28.6674 22.9804 28.751 22.5138 28.915 22.0555C29.0789 21.5938 29.3214 21.1573 29.6325 20.7558C29.937 20.3644 30.3484 20.0399 30.8536 19.7941C31.3604 19.5482 31.9358 19.4227 32.563 19.4227C33.4997 19.4227 34.1922 19.6703 34.6203 20.1604C35.0552 20.6588 35.2777 21.3195 35.2777 22.1207C35.2777 22.6091 35.1941 23.0975 35.0285 23.5725C34.8646 24.0493 34.622 24.4942 34.3109 24.8939C34.0065 25.2837 33.5867 25.6065 33.0631 25.854C32.5362 26.1016 31.9341 26.227 31.2751 26.227C30.4103 26.227 29.7764 25.9661 29.3381 25.4275ZM30.4672 17.5259C29.7279 17.7852 29.0906 18.1348 28.5771 18.5663C28.0636 18.9962 27.6187 19.5047 27.254 20.0767C26.8877 20.6488 26.6134 21.2559 26.4378 21.8798C26.2638 22.5021 26.1735 23.1427 26.1735 23.7816C26.1735 24.4156 26.2655 25.016 26.4478 25.568C26.6318 26.1233 26.9111 26.6352 27.2774 27.0918C27.6521 27.5568 28.164 27.9298 28.7979 28.1991C29.4251 28.465 30.1477 28.6005 30.9472 28.6005C32.1231 28.6005 33.1886 28.3513 34.1202 27.8612L34.6036 28.4466C34.7592 28.634 34.9716 28.7444 35.1957 28.7745H35.4333C35.6039 28.7527 35.7711 28.6825 35.9116 28.562L37.2163 27.4497L36.1425 26.1785C37.2146 24.8722 37.7566 23.422 37.7566 21.8665C37.7566 20.4999 37.3417 19.3592 36.5205 18.476C35.6959 17.5878 34.4698 17.1379 32.8775 17.1379C32.016 17.1379 31.2048 17.2684 30.4672 17.5259ZM45.9826 6.40957H48.8278C49.2627 6.40957 49.5788 6.52832 49.7946 6.7742C50.0187 7.02844 50.1274 7.31948 50.1274 7.66405C50.1274 8.11901 49.9635 8.51208 49.6273 8.86668C49.2928 9.21793 48.8328 9.39021 48.2206 9.39021H45.4641L45.9826 6.40957ZM45.3386 4.10132C44.5006 4.10132 43.7814 4.70347 43.6359 5.52975L41.9147 15.2612H42.4249C43.5857 15.2612 44.5793 14.4265 44.78 13.2825L45.0576 11.7018H46.752L48.7308 14.562C49.0335 15.0003 49.532 15.2612 50.0655 15.2612H51.7315C51.9556 15.2612 52.0844 15.0086 51.9539 14.828L49.5102 11.4124C50.5389 11.1398 51.315 10.643 51.8251 9.93215C52.3855 9.14768 52.6698 8.28293 52.6698 7.3613C52.6698 6.44469 52.3621 5.66691 51.7532 5.04804C51.1427 4.42749 50.2679 4.1147 49.1489 4.1147C48.5903 4.1147 47.7523 4.11135 46.6333 4.10801C46.2352 4.10634 45.7735 4.10466 45.3437 4.10299H45.3386V4.10132ZM57.1375 12.9312C56.7879 12.784 56.5203 12.5783 56.3413 12.3207C56.1506 12.0464 56.0118 11.7503 55.9298 11.4409C55.8445 11.1231 55.801 10.7685 55.801 10.3888C55.801 9.24469 56.1857 8.25282 56.9418 7.44326C57.7045 6.62701 58.6479 6.23059 59.822 6.23059C60.5312 6.23059 61.11 6.40622 61.5432 6.75246C61.9831 7.10539 62.2591 7.52355 62.3845 8.03036C62.5117 8.54888 62.5133 9.12092 62.3896 9.72976V9.73311C62.2072 10.7016 61.7757 11.5262 61.1066 12.1852C60.4476 12.8342 59.5561 13.162 58.4538 13.162C57.9437 13.162 57.5004 13.0834 57.1375 12.9312ZM55.2457 5.82581C53.9394 7.09702 53.277 8.73287 53.277 10.6899C53.277 11.3322 53.3673 11.9376 53.548 12.4946C53.7286 13.0533 54.0063 13.5668 54.3759 14.0201C54.7506 14.4834 55.2674 14.8497 55.9131 15.1123C56.5487 15.3716 57.298 15.5037 58.1377 15.5037C59.0777 15.5037 59.9575 15.3448 60.7554 15.0304C61.5532 14.7142 62.2373 14.2793 62.786 13.7357C63.3279 13.1988 63.7812 12.59 64.1325 11.9259C64.482 11.2619 64.7279 10.5443 64.8617 9.80336C65.0307 9.0607 65.0457 8.32641 64.9019 7.62223C64.7597 6.91972 64.5105 6.29081 64.1592 5.74887C63.7996 5.19523 63.2644 4.74529 62.5652 4.41076C61.8727 4.08125 61.0598 3.91566 60.1449 3.91566C58.1979 3.91566 56.5504 4.55795 55.2457 5.82581ZM16.9506 0.00501772L15.6576 0.0117097C15.0454 0.015055 14.3044 0.0167265 13.6638 0.0183992C12.7924 0.0200718 12.048 0.647313 11.8975 1.50538L10.8906 7.23585H12.0815C12.9228 7.23585 13.6421 6.63036 13.7859 5.80072L14.3797 2.36177H17.9291C18.7804 2.36177 19.4077 2.61267 19.7957 3.10442C20.1771 3.58949 20.3627 4.19164 20.3477 4.89081C20.3176 5.75055 19.9948 6.50491 19.3893 7.13215C18.7804 7.76273 17.9692 8.08221 16.979 8.08221H5.14505C3.19642 8.08221 1.99881 8.87671 1.33811 9.54242C0.47503 10.4105 0 11.5713 0 12.8124C0 15.1224 1.73955 17.4607 5.06309 17.4607C6.52832 17.4607 6.79762 17.924 7.33119 18.8473C7.93836 19.8927 8.8533 21.4751 11.7988 21.4751H13.9314C13.6421 23.1042 13.2691 25.2335 13.0399 26.5398C12.9312 27.162 13.4096 27.7307 14.0418 27.7307H22.4101C23.2966 27.7307 24.0559 27.0935 24.2098 26.222L24.4022 25.1331H15.9085L16.5508 21.5068H23.2815C24.1245 21.5068 24.8454 20.8997 24.9876 20.0684L25.1599 19.0598H16.969L17.633 15.2612H29.5171C30.5458 15.2612 31.4256 14.5236 31.6046 13.5099L31.7334 12.7857H25.7721L26.1083 10.8922H30.3986C31.2416 10.8922 31.9625 10.2851 32.103 9.45377L32.2619 8.52379H26.5131L26.8727 6.46811H32.8323H36.8333L35.2827 15.288H35.7929C36.9537 15.288 37.9472 14.455 38.148 13.3109L39.3523 6.46811H40.9864C41.8278 6.46811 42.5453 5.86428 42.6908 5.03633L42.8481 4.13979H32.9059H26.3257C25.4392 4.13979 24.6798 4.77539 24.5276 5.65019C24.3303 6.77755 24.0559 8.34648 23.8218 9.66453C23.6077 10.8722 23.422 11.9192 23.2648 12.8141H16.9924C16.1059 12.8141 15.3465 13.4514 15.1943 14.3262C14.9668 15.6325 14.6323 17.546 14.363 19.0715H11.8038C10.2449 19.0715 9.95055 18.5647 9.41698 17.643C8.81984 16.6144 7.91996 15.0571 5.06811 15.0571C3.22987 15.0571 2.40861 13.9298 2.40861 12.8124C2.40861 11.6918 3.26667 10.4858 5.15007 10.4858H10.3252L9.54242 14.9384H9.99738C11.2586 14.9384 12.3391 14.0318 12.5549 12.7873L12.958 10.4858H16.5073C18.5429 10.4858 20.1537 9.90372 21.2944 8.75628C22.4519 7.59212 23.0139 6.19212 23.0139 4.47599C23.0139 3.2098 22.6308 2.16942 21.8414 1.29463C21.0669 0.436561 19.9111 0 18.4074 0C17.8973 0 17.5627 0.00167244 16.9506 0.00501772Z" fill="white"/>
</svg>
