<svg width="96" height="43" viewBox="0 0 96 43" fill="none" xmlns="http://www.w3.org/2000/svg">
<path d="M71.7097 25.7091C70.4696 25.7091 69.4098 26.5984 69.1924 27.8188L67.9424 34.884C67.7226 36.139 67.2384 37.1271 66.5047 37.8188C65.7734 38.5105 64.8792 38.8465 63.7749 38.8465C62.6138 38.8465 61.7863 38.5599 61.312 37.9942C60.7932 37.3741 60.6499 36.3712 60.8895 35.0125L62.5373 25.7091H61.0279C59.7877 25.7091 58.728 26.5984 58.513 27.8188L57.263 34.884C56.8455 37.2481 57.2037 39.0861 58.3228 40.3485C59.437 41.6034 61.102 42.2408 63.266 42.2408C65.561 42.2408 67.4311 41.6232 68.8293 40.4028C70.2226 39.1874 71.144 37.3741 71.5714 35.0125L73.2191 25.7091H71.7097ZM78.1228 25.6868C76.8827 25.6868 75.8204 26.5786 75.6055 27.799L73.1252 41.9097H74.3925C75.771 41.9097 76.9494 40.9191 77.189 39.5629L79.6272 25.6868H78.1228ZM85.6475 29.0391H89.7137C90.4425 29.0391 90.9415 29.2269 91.2478 29.6147C91.5714 30.0273 91.7246 30.5263 91.7098 31.1315C91.6826 31.8998 91.4059 32.547 90.8624 33.1103C90.3264 33.6661 89.6322 33.9379 88.7429 33.9379H84.8051L85.6475 29.0391ZM86.5492 25.677C85.9884 25.6794 85.3461 25.6819 84.7434 25.6844C83.4835 25.6868 82.4113 26.5935 82.1915 27.8336L79.7186 41.9122H80.855C82.3224 41.9122 83.5749 40.8573 83.8293 39.4122L84.1875 37.3544H88.2537C90.4697 37.3544 92.2335 36.7121 93.4934 35.4423C94.7558 34.175 95.3931 32.5866 95.3931 30.7239C95.3931 29.3232 94.9484 28.1202 94.069 27.1468C93.1797 26.1636 91.8802 25.6646 90.2004 25.6646C89.4049 25.6646 88.187 25.6696 86.5492 25.677ZM43.3302 37.5545C42.6731 36.7516 42.3396 35.7635 42.3396 34.6172C42.3396 33.9403 42.4631 33.2511 42.7052 32.5742C42.9473 31.8924 43.3055 31.2476 43.765 30.6547C44.2146 30.0767 44.8223 29.5974 45.5683 29.2343C46.3168 28.8711 47.1667 28.6859 48.093 28.6859C49.4764 28.6859 50.4992 29.0515 51.1316 29.7753C51.7739 30.5115 52.1024 31.4873 52.1024 32.6706C52.1024 33.3919 51.9789 34.1133 51.7344 34.8148C51.4923 35.5189 51.1341 36.176 50.6746 36.7664C50.225 37.342 49.6049 37.8188 48.8317 38.1844C48.0535 38.55 47.1642 38.7353 46.1909 38.7353C44.9137 38.7353 43.9774 38.3499 43.3302 37.5545ZM44.9977 25.8845C43.9058 26.2674 42.9646 26.7837 42.2062 27.421C41.4478 28.0559 40.7906 28.8069 40.2521 29.6518C39.7111 30.4966 39.306 31.3934 39.0466 32.3148C38.7897 33.2338 38.6563 34.18 38.6563 35.1236C38.6563 36.0599 38.7921 36.9468 39.0614 37.762C39.3331 38.5821 39.7457 39.3381 40.2867 40.0125C40.84 40.6992 41.596 41.2501 42.5323 41.6479C43.4586 42.0407 44.5258 42.2408 45.7067 42.2408C47.4433 42.2408 49.017 41.8727 50.393 41.1488L51.1069 42.0135C51.3366 42.2902 51.6504 42.4532 51.9814 42.4977H52.3322C52.5842 42.4656 52.8312 42.3618 53.0387 42.1839L54.9656 40.5411L53.3796 38.6637C54.9631 36.7343 55.7635 34.5925 55.7635 32.2951C55.7635 30.2768 55.1509 28.592 53.9379 27.2876C52.72 25.9759 50.9093 25.3113 48.5575 25.3113C47.2852 25.3113 46.0871 25.504 44.9977 25.8845ZM67.9128 9.46644H72.1149C72.7572 9.46644 73.2241 9.64183 73.5427 10.005C73.8738 10.3805 74.0343 10.8103 74.0343 11.3192C74.0343 11.9911 73.7922 12.5717 73.2957 13.0954C72.8016 13.6142 72.1223 13.8686 71.2181 13.8686H67.147L67.9128 9.46644ZM66.9617 6.05733C65.724 6.05733 64.6618 6.94666 64.4469 8.16702L61.9048 22.5396H62.6583C64.3727 22.5396 65.8401 21.3069 66.1366 19.6172L66.5467 17.2827H69.0491L71.9716 21.507C72.4187 22.1542 73.1549 22.5396 73.9429 22.5396H76.4034C76.7344 22.5396 76.9247 22.1666 76.732 21.8998L73.1228 16.8553C74.642 16.4526 75.7883 15.7189 76.5418 14.669C77.3693 13.5104 77.7893 12.2332 77.7893 10.8721C77.7893 9.51831 77.3347 8.36959 76.4355 7.45556C75.5338 6.53905 74.2418 6.0771 72.5892 6.0771C71.7641 6.0771 70.5264 6.07215 68.8737 6.06721C68.2858 6.06474 67.604 6.06227 66.9691 6.0598H66.9617V6.05733ZM84.3876 19.0984C83.8713 18.881 83.4761 18.5771 83.2117 18.1967C82.9301 17.7916 82.7251 17.3543 82.604 16.8973C82.478 16.4279 82.4138 15.9042 82.4138 15.3434C82.4138 13.6537 82.982 12.1888 84.0986 10.9931C85.2251 9.78758 86.6184 9.20211 88.3526 9.20211C89.4 9.20211 90.2547 9.4615 90.8946 9.97286C91.5443 10.4941 91.9519 11.1117 92.1372 11.8602C92.3249 12.626 92.3274 13.4709 92.1446 14.3701V14.375C91.8753 15.8054 91.238 17.0233 90.2498 17.9966C89.2765 18.9551 87.9598 19.4393 86.3318 19.4393C85.5783 19.4393 84.9237 19.3232 84.3876 19.0984ZM81.5937 8.60428C79.6643 10.4818 78.686 12.8978 78.686 15.7881C78.686 16.7367 78.8194 17.631 79.0862 18.4536C79.353 19.2787 79.7631 20.0371 80.3091 20.7066C80.8624 21.3909 81.6258 21.9319 82.5793 22.3197C83.5181 22.7026 84.6248 22.8978 85.8649 22.8978C87.2533 22.8978 88.5527 22.6631 89.731 22.1987C90.9094 21.7318 91.9198 21.0895 92.73 20.2866C93.5304 19.4936 94.1999 18.5944 94.7187 17.6137C95.235 16.633 95.5981 15.5732 95.7958 14.4788C96.0453 13.382 96.0675 12.2975 95.8551 11.2575C95.6451 10.2199 95.277 9.29104 94.7582 8.49064C94.2271 7.67295 93.4366 7.00842 92.404 6.51435C91.3812 6.02769 90.1806 5.78312 88.8293 5.78312C85.9538 5.78312 83.5205 6.73174 81.5937 8.60428ZM25.0347 0.00741079L23.1251 0.0172944C22.2209 0.0222351 21.1266 0.0247038 20.1804 0.0271742C18.8933 0.0296445 17.794 0.956031 17.5717 2.22333L16.0845 10.6868H17.8434C19.086 10.6868 20.1483 9.79252 20.3607 8.56722L21.2377 3.48816H26.4798C27.7372 3.48816 28.6636 3.85871 29.2368 4.58499C29.8 5.3014 30.0742 6.19073 30.052 7.22335C30.0075 8.49311 29.5307 9.60724 28.6365 10.5336C27.7372 11.465 26.5391 11.9368 25.0767 11.9368H7.59884C4.72087 11.9368 2.95208 13.1102 1.97629 14.0934C0.701583 15.3755 0 17.09 0 18.923C0 22.3346 2.56918 25.7881 7.47779 25.7881C9.64183 25.7881 10.0396 26.4724 10.8276 27.8361C11.7243 29.38 13.0756 31.717 17.4259 31.717H20.5757C20.1483 34.1231 19.5974 37.2679 19.259 39.1973C19.0984 40.1162 19.8049 40.9562 20.7387 40.9562H33.0979C34.4072 40.9562 35.5288 40.015 35.756 38.7279L36.0401 37.1197H23.4956L24.4443 31.7639H34.385C35.6301 31.7639 36.6948 30.8672 36.9048 29.6394L37.1592 28.1498H25.0618L26.0426 22.5396H43.5945C45.1138 22.5396 46.4132 21.4502 46.6775 19.9531L46.8677 18.8835H38.0634L38.5599 16.087H44.8964C46.1415 16.087 47.2062 15.1903 47.4137 13.9625L47.6484 12.589H39.1577L39.6889 9.5529H48.4908H54.3999L52.1099 22.5791H52.8633C54.5778 22.5791 56.0451 21.3489 56.3416 19.6592L58.1203 9.5529H60.5338C61.7764 9.5529 62.8362 8.6611 63.0511 7.43827L63.2833 6.11415H48.5995H38.8811C37.5718 6.11415 36.4502 7.05289 36.2254 8.34489C35.9339 10.0099 35.5288 12.3271 35.1829 14.2738C34.8667 16.0574 34.5925 17.6038 34.3603 18.9255H25.0964C23.7871 18.9255 22.6656 19.8667 22.4408 21.1587C22.1048 23.088 21.6107 25.9141 21.213 28.1671H17.4334C15.131 28.1671 14.6962 27.4186 13.9081 26.0574C13.0262 24.5381 11.6972 22.2382 7.4852 22.2382C4.77027 22.2382 3.55732 20.5732 3.55732 18.923C3.55732 17.2678 4.82462 15.4867 7.60625 15.4867H15.2496L14.0934 22.0628H14.7654C16.628 22.0628 18.2239 20.7239 18.5426 18.8859L19.1379 15.4867H24.38C27.3865 15.4867 29.7654 14.627 31.4502 12.9324C33.1597 11.213 33.9897 9.14529 33.9897 6.6107C33.9897 4.74063 33.424 3.20406 32.258 1.91206C31.1142 0.644766 29.4072 0 27.1864 0C26.4329 0 25.9388 0.00247006 25.0347 0.00741079Z" fill="url(#paint0_linear_816_1468)"/>
<defs>
<linearGradient id="paint0_linear_816_1468" x1="45.2034" y1="41.6518" x2="51.0632" y2="2.15366" gradientUnits="userSpaceOnUse">
<stop offset="0.0176" stop-color="#4F93CF"/>
<stop offset="0.3167" stop-color="#337CC0"/>
<stop offset="0.685" stop-color="#075397"/>
<stop offset="1" stop-color="#134983"/>
</linearGradient>
</defs>
</svg>
