<svg width="54" height="53" viewBox="0 0 54 53" fill="none" xmlns="http://www.w3.org/2000/svg">
<circle cx="27" cy="26.5" r="26.5" fill="#085298"/>
<path fill-rule="evenodd" clip-rule="evenodd" d="M40.5 14.5157C40.5 14.698 40.5 14.8803 40.5 15.0626C40.3563 15.499 40.0538 15.8176 39.7341 16.1311C39.0128 16.8387 38.3026 17.5579 37.5887 18.2731C37.5215 18.3404 37.4597 18.4131 37.3509 18.5319C37.9469 18.5319 38.4803 18.533 39.0136 18.5316C39.5189 18.5303 39.9445 18.7017 40.2355 19.1267C40.346 19.2879 40.4131 19.479 40.5 19.6564C40.5 26.0548 40.5 32.4532 40.5 38.8516C40.3301 39.4473 39.9474 39.8302 39.3516 40C31.5313 40 23.7109 40 15.8906 40C15.8395 39.9834 15.7895 39.9612 15.7372 39.9514C14.1497 39.651 13.1195 38.7242 12.6336 37.1881C12.5793 37.0164 12.544 36.8388 12.5 36.664C12.5 29.5365 12.5 22.4088 12.5 15.2813C12.5171 15.2313 12.5404 15.1824 12.5505 15.131C12.8549 13.5902 13.7652 12.5957 15.2589 12.1296C15.4299 12.0763 15.6069 12.0428 15.7812 12.0001C16.3281 12.0001 16.875 12.0001 17.4219 12.0001C18.3339 12.3679 18.5684 12.7187 18.5684 13.7159C18.5684 15.219 18.5684 16.7221 18.5684 18.2253C18.5684 18.3218 18.5684 18.4183 18.5684 18.5316C18.6805 18.5316 18.7528 18.5316 18.8251 18.5316C22.6787 18.5316 26.5323 18.5334 30.3858 18.5241C30.5191 18.5238 30.684 18.445 30.7807 18.3489C32.6617 16.4809 34.5371 14.6071 36.4071 12.7281C36.7108 12.423 37.0185 12.136 37.4375 12C37.6198 12 37.8021 12 37.9844 12C38.4008 12.1161 38.7151 12.3792 39.0039 12.6881C39.2577 12.9595 39.5213 13.2226 39.7924 13.4767C40.1071 13.7718 40.3808 14.0898 40.5 14.5157ZM18.5684 19.482C18.5684 19.6184 18.5684 19.7266 18.5684 19.8347C18.5684 23.8628 18.5688 27.8911 18.5681 31.9192C18.5679 32.8946 18.0017 33.4599 17.0244 33.4687C16.6601 33.472 16.2943 33.4629 15.9316 33.4906C14.3976 33.6078 13.2136 35.1354 13.4714 36.6513C13.7165 38.0931 14.9041 39.0667 16.4381 39.0672C23.9386 39.0695 31.4392 39.0684 38.9398 39.068C39.4103 39.068 39.5681 38.9133 39.5681 38.4497C39.5686 32.3254 39.5687 26.2011 39.5681 20.0768C39.5681 19.6252 39.4146 19.4708 38.96 19.4692C38.2036 19.4665 37.4471 19.4745 36.6908 19.4644C36.4847 19.4616 36.3359 19.5188 36.1881 19.6679C34.8153 21.0532 33.4331 22.429 32.0577 23.8119C31.7595 24.1118 31.4195 24.3404 30.9994 24.3913C30.2949 24.4767 29.587 24.5784 28.8796 24.5872C26.802 24.613 24.7239 24.5964 22.6459 24.5964C22.5392 24.5964 22.4324 24.5964 22.3117 24.5964C22.3117 26.3204 22.3117 28.0099 22.3117 29.7064C26.0471 29.7064 29.7668 29.7064 33.5 29.7064C33.5 29.5939 33.5 29.5036 33.5 29.4131C33.5 28.7752 33.4985 28.1372 33.5007 27.4993C33.5018 27.155 33.6795 26.9389 33.958 26.9336C34.2464 26.928 34.4278 27.1488 34.4315 27.51C34.432 27.5556 34.4316 27.6011 34.4316 27.6467C34.4316 29.8248 34.4317 32.0029 34.4316 34.1811C34.4316 35.0058 34.0983 35.3376 33.2693 35.3377C30.3164 35.3379 27.3637 35.3383 24.4108 35.3361C24.2756 35.336 24.1329 35.3344 24.0069 35.2932C23.7926 35.2232 23.69 35.0533 23.7095 34.8267C23.729 34.6005 23.8571 34.4578 24.0817 34.4176C24.1793 34.4001 24.2814 34.4042 24.3814 34.4041C25.2928 34.4032 26.2041 34.4036 27.1155 34.4036C27.2131 34.4036 27.3106 34.4036 27.4167 34.4036C27.4167 33.1436 27.4167 31.9178 27.4167 30.686C25.705 30.686 24.0082 30.686 22.296 30.686C22.296 30.8188 22.296 30.9276 22.296 31.0365C22.296 33.0141 22.2961 34.9918 22.2958 36.9694C22.2958 37.0605 22.3 37.1523 22.2904 37.2426C22.2651 37.4838 22.0948 37.6448 21.8608 37.657C21.6272 37.6692 21.4296 37.5285 21.3808 37.2973C21.3584 37.1919 21.3641 37.0798 21.3641 36.9708C21.3635 32.9609 21.3636 28.9509 21.3636 24.941C21.3636 24.835 21.3636 24.7291 21.3636 24.5951C20.8847 24.5951 20.4399 24.6013 19.9954 24.593C19.7001 24.5874 19.5133 24.4099 19.5023 24.1516C19.4912 23.8884 19.6876 23.6884 19.9848 23.6648C20.0663 23.6582 20.1487 23.6622 20.2308 23.6622C22.6823 23.6621 25.1338 23.6621 27.5855 23.6621C27.6919 23.6621 27.7983 23.6621 27.8919 23.6621C27.9226 23.2773 27.9493 22.9258 27.9786 22.5745C28.107 21.0363 28.1079 21.0349 29.2036 19.936C29.3408 19.7984 29.4772 19.66 29.6536 19.482C25.9244 19.482 22.2645 19.482 18.5684 19.482ZM13.4316 33.7041C13.8208 33.4377 14.1724 33.1623 14.5556 32.9419C15.2881 32.5205 16.1037 32.5177 16.9192 32.5297C17.5169 32.5386 17.6364 32.4113 17.6364 31.8116C17.6364 25.7625 17.6364 19.7132 17.6362 13.6641C17.6362 13.564 17.6439 13.4622 17.6298 13.3639C17.5947 13.1186 17.4497 12.941 17.2032 12.9421C16.6678 12.9443 16.1178 12.9138 15.6001 13.0221C14.2744 13.2995 13.4325 14.4375 13.4321 15.8571C13.4307 21.7241 13.4316 27.5911 13.4316 33.458C13.4316 33.5457 13.4316 33.6333 13.4316 33.7041ZM34.7137 15.8486C33.0271 17.5351 31.3419 19.2203 29.6887 20.8735C30.332 21.5171 31 22.1852 31.6474 22.8329C33.3148 21.1677 35.001 19.4836 36.6754 17.8113C36.02 17.1553 35.3511 16.4862 34.7137 15.8486ZM28.3844 30.6774C28.3844 31.9307 28.3844 33.1553 28.3844 34.3866C30.0958 34.3866 31.7862 34.3866 33.4858 34.3866C33.4858 33.1439 33.4858 31.9183 33.4858 30.6774C31.7814 30.6774 30.0913 30.6774 28.3844 30.6774ZM38.7567 15.7947C38.9899 15.5559 39.2265 15.3305 39.4428 15.0869C39.616 14.8917 39.6261 14.6555 39.4461 14.4673C38.9872 13.9872 38.515 13.5195 38.0373 13.0581C37.8692 12.8958 37.6392 12.8662 37.4642 13.0242C37.2043 13.2585 36.9798 13.5322 36.7446 13.7844C37.3977 14.4369 38.0601 15.0988 38.7567 15.7947ZM38.0229 16.4956C37.3425 15.8093 36.6789 15.1399 36.0493 14.5046C35.8388 14.7135 35.6167 14.934 35.4302 15.1192C36.0796 15.7697 36.7465 16.4378 37.3964 17.0887C37.5999 16.896 37.8228 16.6849 38.0229 16.4956ZM30.7592 23.4928C30.176 22.9071 29.5866 22.3153 29.012 21.7385C28.9604 22.2125 28.8957 22.7356 28.8494 23.2604C28.824 23.5494 28.9486 23.6789 29.2295 23.6545C29.7625 23.6082 30.2938 23.5429 30.7592 23.4928Z" fill="white"/>
</svg>
