<svg width="54" height="53" viewBox="0 0 54 53" fill="none" xmlns="http://www.w3.org/2000/svg">
<circle cx="27" cy="26.5" r="26.5" fill="#509CE4"/>
<path fill-rule="evenodd" clip-rule="evenodd" d="M18.1051 39C17.7318 38.9029 17.3459 38.8391 16.9875 38.7034C14.9995 37.9499 13.8405 36.5069 13.5456 34.4085C13.168 31.7213 15.1801 29.0754 17.8551 28.6831C18.4125 28.6013 18.9644 28.5915 19.5224 28.6748C19.6328 28.6913 19.7933 28.6387 19.8727 28.5597C22.9487 25.4969 26.0187 22.4281 29.0834 19.354C29.1561 19.2811 29.2041 19.1332 29.1893 19.0311C28.7696 16.1359 30.6018 13.5878 33.4888 13.0643C33.612 13.042 33.7356 13.0214 33.859 13C34.164 13 34.4689 13 34.7738 13C34.9874 13.0419 35.2005 13.087 35.4149 13.1249C35.6232 13.1616 35.817 13.2204 35.8863 13.4493C35.9577 13.6853 35.8322 13.849 35.6739 14.0061C34.8572 14.8168 34.0461 15.6332 33.2285 16.4429C33.1267 16.5437 33.0942 16.6271 33.1453 16.7714C33.3537 17.3602 33.5397 17.9569 33.7518 18.5443C33.7874 18.6427 33.8973 18.7482 33.9967 18.7838C34.5693 18.9886 35.152 19.1656 35.7249 19.3698C35.8965 19.4309 35.9968 19.3946 36.1187 19.2714C36.9161 18.4653 37.7218 17.6674 38.5233 16.8655C38.6766 16.7122 38.8284 16.5665 39.0743 16.6441C39.3157 16.7202 39.3752 16.9138 39.4088 17.1336C39.4262 17.2473 39.4688 17.3571 39.5 17.4687C39.5 17.9596 39.5 18.4505 39.5 18.9414C39.4834 18.9975 39.4606 19.0525 39.4513 19.1098C39.0046 21.8671 36.2852 23.8091 33.5333 23.3291C33.3727 23.3011 33.2677 23.3358 33.1541 23.4512C32.5011 24.1143 31.8397 24.7692 31.1821 25.4277C31.1368 25.4731 31.0984 25.5253 31.0604 25.5701C31.0785 25.5997 31.0847 25.6166 31.0961 25.6281C31.3527 25.8859 31.6099 26.1432 31.8671 26.4004C32.2502 26.7835 32.253 26.9419 31.8828 27.3295C31.6338 27.5904 31.6089 27.8562 31.8136 28.0697C32.0233 28.2884 32.303 28.2673 32.5741 28.0124C32.9591 27.6503 33.1166 27.6507 33.4838 28.0174C35.1238 29.6559 36.7643 31.2939 38.4022 32.9344C38.5571 33.0896 38.7004 33.2574 38.8399 33.4268C39.1797 33.8396 39.3396 34.3382 39.5 34.8359C39.5 35.2929 39.5 35.75 39.5 36.207C39.4801 36.2609 39.4555 36.3136 39.441 36.3689C39.2165 37.2157 38.7465 37.8907 38.032 38.399C37.5998 38.7065 37.1062 38.863 36.6033 39C36.2306 39 35.8579 39 35.4853 39C34.4242 38.7993 33.6741 38.1272 32.9487 37.3857C31.4995 35.9045 30.0214 34.4517 28.5553 32.987C28.5014 32.9332 28.4448 32.8816 28.3958 32.8237C28.2133 32.6081 28.2151 32.4002 28.3992 32.1862C28.4872 32.0841 28.5913 31.9926 28.6627 31.8801C28.7858 31.6862 28.7595 31.4851 28.607 31.3199C28.4463 31.1459 28.2411 31.1133 28.0301 31.2244C27.9426 31.2705 27.8682 31.3453 27.7953 31.4148C27.4796 31.7158 27.2875 31.7166 26.9746 31.405C26.6828 31.1144 26.3955 30.8194 26.0924 30.5122C25.4628 31.1415 24.8716 31.7571 24.2512 32.3418C23.9501 32.6256 23.8298 32.8854 23.8747 33.3366C24.1126 35.7309 22.7192 37.8807 20.447 38.6995C20.0689 38.8356 19.6656 38.9016 19.2739 39C18.8843 39 18.4947 39 18.1051 39ZM34.5522 13.882C33.8066 13.8291 32.9698 14.0088 32.3421 14.3412C30.5818 15.2734 29.7007 17.114 30.0954 19.068C30.1574 19.3751 30.0907 19.5912 29.8673 19.8137C26.67 22.9967 23.4789 26.186 20.2919 29.3792C20.0888 29.5826 19.8841 29.6182 19.6075 29.5873C19.1148 29.5322 18.6075 29.4624 18.1211 29.5212C15.6228 29.8234 13.9225 32.198 14.3996 34.67C14.8643 37.0778 17.1726 38.5848 19.6369 38.0891C21.9197 37.6298 23.4473 35.2719 22.9488 32.9614C22.8813 32.6483 22.9426 32.4215 23.1759 32.1904C25.0101 30.3736 26.833 28.5454 28.6593 26.7208C30.0246 25.3567 31.3915 23.9943 32.7532 22.6268C32.9356 22.4437 33.1206 22.3659 33.3876 22.4166C33.7349 22.4828 34.0927 22.5402 34.4441 22.5307C36.4654 22.4761 38.1167 21.1143 38.5614 19.1373C38.6421 18.7787 38.6455 18.4027 38.6846 18.0347C38.6578 18.0299 38.6309 18.0249 38.6041 18.02C38.5375 18.0834 38.4696 18.1454 38.4045 18.2103C37.7575 18.8561 37.1071 19.4987 36.4665 20.1508C36.2712 20.3497 36.0715 20.4036 35.8046 20.3111C35.0299 20.0429 34.2514 19.7852 33.4711 19.5339C33.2226 19.4539 33.0755 19.305 32.9954 19.0576C32.7487 18.2943 32.4972 17.5323 32.2322 16.7752C32.1266 16.4733 32.1821 16.252 32.4154 16.0269C33.0733 15.3924 33.7122 14.7382 34.3581 14.0913C34.4155 14.0338 34.4687 13.9723 34.5522 13.882ZM32.9954 28.8114C32.3463 29.2193 31.7053 29.1864 31.2178 28.7128C30.7177 28.2269 30.6769 27.6011 31.0875 26.9058C30.8627 26.6721 30.6417 26.4422 30.4271 26.2189C29.2002 27.4504 27.9715 28.6839 26.7642 29.8959C26.9722 30.1063 27.1948 30.3316 27.4256 30.5651C27.4723 30.5362 27.535 30.4938 27.6009 30.457C28.1325 30.1604 28.7819 30.2519 29.2149 30.6831C29.64 31.1064 29.7434 31.7851 29.4293 32.2939C29.3206 32.4699 29.3448 32.5558 29.4821 32.692C31.0202 34.2191 32.5514 35.7531 34.0849 37.2847C34.162 37.3618 34.2439 37.434 34.2923 37.4792C35.5353 36.236 36.765 35.0061 37.9897 33.7813C36.3448 32.1444 34.6772 30.485 32.9954 28.8114ZM38.4768 34.5741C37.3391 35.716 36.233 36.826 35.1171 37.946C35.9619 38.3269 37.1093 38.1063 37.8122 37.4511C38.5838 36.732 38.8659 35.5916 38.4768 34.5741Z" fill="white"/>
<path fill-rule="evenodd" clip-rule="evenodd" d="M15.8261 13C16.7683 13.5437 17.7027 14.1016 18.6569 14.6234C19.0031 14.8127 19.2151 15.0497 19.2596 15.4389C19.3615 16.3321 19.8112 17.0015 20.4666 17.6218C21.9957 19.0689 23.4597 20.5846 24.9512 22.0714C25.0174 22.1374 25.095 22.1919 25.1552 22.2417C24.9302 22.4559 24.7298 22.6467 24.5092 22.8568C24.4895 22.8383 24.4226 22.7782 24.359 22.7147C22.5784 20.9383 20.7955 19.1641 19.0228 17.3798C18.881 17.2371 18.775 17.0355 18.7135 16.8419C18.5874 16.4455 18.5063 16.035 18.3983 15.6326C18.3781 15.5573 18.337 15.4624 18.2761 15.4269C17.4442 14.9433 16.6073 14.4687 15.7972 14.0063C15.3598 14.4396 14.9382 14.8571 14.4989 15.2921C14.9625 16.1022 15.4368 16.9372 15.9214 17.7663C15.9608 17.8337 16.0655 17.8788 16.1488 17.9021C16.4686 17.9915 16.7886 18.0883 17.1151 18.1439C17.4959 18.2086 17.7793 18.3964 18.0484 18.6676C19.7598 20.3927 21.4839 22.1052 23.2051 23.8205C23.2711 23.8863 23.351 23.9381 23.4409 24.0094C23.1988 24.2255 22.9908 24.4112 22.7175 24.6552C22.6931 24.615 22.6546 24.5118 22.5837 24.4408C20.8548 22.7091 19.1242 20.9791 17.3867 19.256C17.2735 19.1437 17.1113 19.0595 16.9566 19.0139C16.5403 18.891 16.1093 18.8156 15.6975 18.6807C15.5286 18.6253 15.3414 18.4964 15.2525 18.3475C14.6899 17.4046 14.1511 16.4475 13.6074 15.4933C13.4466 15.211 13.4626 15.0471 13.6807 14.8266C14.2262 14.2749 14.7762 13.7275 15.3275 13.1816C15.3986 13.1113 15.4887 13.0601 15.5699 13.0001C15.6552 13 15.7406 13 15.8261 13Z" fill="white"/>
<path fill-rule="evenodd" clip-rule="evenodd" d="M18.7345 36.3068C18.3127 36.3067 17.8909 36.3018 17.4693 36.3087C17.2329 36.3126 17.0697 36.2214 16.9506 36.0333C16.5334 35.3739 16.1147 34.7154 15.6901 34.0601C15.562 33.8623 15.5574 33.6805 15.6864 33.4814C16.1108 32.8262 16.5313 32.1686 16.9467 31.5081C17.0666 31.3175 17.2297 31.2294 17.4637 31.2303C18.3072 31.2336 19.1508 31.2344 19.9943 31.2299C20.2407 31.2285 20.404 31.3262 20.528 31.5242C20.9329 32.1712 21.3432 32.8154 21.7611 33.455C21.9017 33.6701 21.9039 33.8621 21.7635 34.0774C21.3459 34.7173 20.9343 35.3606 20.5298 36.0079C20.3943 36.2246 20.2136 36.3176 19.947 36.3099C19.5432 36.2982 19.1388 36.3068 18.7345 36.3068ZM18.7209 35.4625C19.0285 35.4625 19.3368 35.473 19.6434 35.4562C19.7361 35.451 19.8605 35.3917 19.9084 35.3204C20.2227 34.8533 20.5248 34.3787 20.8172 33.8993C20.858 33.8324 20.8594 33.7064 20.8191 33.6401C20.5318 33.1673 20.2353 32.699 19.9248 32.2395C19.8718 32.1611 19.7386 32.0881 19.6406 32.0859C19.0345 32.0719 18.4278 32.0719 17.8217 32.086C17.7239 32.0883 17.5915 32.1627 17.5382 32.2414C17.2321 32.6939 16.9381 33.154 16.6582 33.6211C16.6118 33.6984 16.6159 33.8439 16.6631 33.9226C16.9436 34.3895 17.2492 34.8429 17.5337 35.3077C17.6118 35.4354 17.7057 35.4694 17.8509 35.4651C18.1407 35.4566 18.4309 35.4626 18.7209 35.4625Z" fill="white"/>
<path fill-rule="evenodd" clip-rule="evenodd" d="M30.8918 21.069C31.0519 21.2236 31.25 21.4151 31.4309 21.59C28.3097 24.8075 25.1974 28.0159 22.0795 31.2299C21.9107 31.0467 21.7284 30.8489 21.5688 30.6758C24.674 27.4761 27.7903 24.2649 30.8918 21.069Z" fill="white"/>
<path fill-rule="evenodd" clip-rule="evenodd" d="M31.1323 31.1661C31.3009 31.0029 31.4974 30.8129 31.6842 30.6322C33.0817 32.0386 34.4955 33.4615 35.9139 34.8891C35.7257 35.065 35.5279 35.2499 35.3525 35.4138C33.9648 34.0171 32.5485 32.5915 31.1323 31.1661Z" fill="white"/>
</svg>
