<svg width="19" height="15" viewBox="0 0 19 15" fill="none" xmlns="http://www.w3.org/2000/svg">
<path d="M1.5 6.58801C0.947715 6.58801 0.5 7.03573 0.5 7.58801C0.5 8.1403 0.947715 8.58801 1.5 8.58801V6.58801ZM18.2071 8.29512C18.5976 7.9046 18.5976 7.27143 18.2071 6.88091L11.8431 0.516945C11.4526 0.12642 10.8195 0.12642 10.4289 0.516945C10.0384 0.907469 10.0384 1.54063 10.4289 1.93116L16.0858 7.58801L10.4289 13.2449C10.0384 13.6354 10.0384 14.2686 10.4289 14.6591C10.8195 15.0496 11.4526 15.0496 11.8431 14.6591L18.2071 8.29512ZM1.5 8.58801H17.5V6.58801H1.5V8.58801Z" fill="#085298"/>
</svg>
